<svg xmlns="http://www.w3.org/2000/svg" x="0px" y="0px"
width="64" height="64"
viewBox="0 0 172 172"
style=" fill:#000000;"><g fill="none" fill-rule="nonzero" stroke="none" stroke-width="1" stroke-linecap="butt" stroke-linejoin="miter" stroke-miterlimit="10" stroke-dasharray="" stroke-dashoffset="0" font-family="none" font-weight="none" font-size="none" text-anchor="none" style="mix-blend-mode: normal"><path d="M0,172v-172h172v172z" fill="none"></path><g fill="#ffffff"><path d="M123.10161,105.18942c-3.72678,-3.71651 -9.68429,-3.94409 -13.68374,-0.52272l-6.66298,-6.66298c7.53726,-8.64817 11.68506,-19.73483 11.67517,-31.20658c0,-26.26494 -21.36798,-47.63325 -47.63291,-47.63325c-26.26494,0 -47.63325,21.36798 -47.63325,47.63325c0,26.26527 21.36798,47.63325 47.63325,47.63325c11.47253,0.0105 22.56006,-4.13748 31.20859,-11.67551l6.66298,6.66298c-3.42158,3.9995 -3.194,9.95725 0.52272,13.68408l28.75054,28.75054c1.31191,1.31189 3.43892,1.31189 4.75083,0l13.16136,-13.16136c1.31189,-1.31191 1.31189,-3.43892 0,-4.75083zM66.79848,107.7113c-16.54855,0.00068 -31.468,-9.96742 -37.8013,-25.25611c-6.3333,-15.28869 -2.83318,-32.88705 8.86822,-44.58883c11.7014,-11.70179 29.29965,-15.20248 44.58854,-8.86969c15.2889,6.33279 25.25749,21.25192 25.25735,37.80047c-0.02573,22.5856 -18.32856,40.88843 -40.91416,40.91416zM136.31538,144.72591l-26.37479,-26.37513c-1.30985,-1.31276 -1.30985,-3.43807 0,-4.75083l3.6597,-3.6597c1.31272,-1.30963 3.43778,-1.30963 4.75049,0l26.37513,26.37479z"></path></g></g></svg>